<svg width="320" height="206" viewBox="0 0 320 206" fill="none" xmlns="http://www.w3.org/2000/svg">
<path d="M199.242 46.2616C204.907 37.8023 214.93 37.1703 224.131 37.1663L236.089 37.3589C252.945 39.4911 264.658 49.6592 275.728 61.4102L285.527 71.5802C293.389 79.6121 301.546 87.4421 308.53 96.2714C318.946 109.438 319.973 119.041 319.97 134.79C319.967 145.958 321.01 156.502 311.097 164.174C306.148 168.004 300.209 168.665 294.153 168.581C293.773 168.576 293.478 168.394 293.42 168.783C285.492 221.544 224.044 214.144 219.204 169.405L173.043 169.15L166.985 169.154L165.684 168.847C166.182 168.437 167.043 168.266 167.651 168.057L171.967 166.568C172.266 166.168 174.585 165.407 175.191 165.116C188.527 158.712 197.441 144.541 199.071 130.046C199.582 125.506 199.278 120.677 199.278 116.098L199.242 46.2616ZM246.738 61.2434C236.075 62.8217 237.463 71.0865 237.456 79.2369C237.446 89.7762 236.694 99.1627 249.332 103.035C251.931 103.831 255.687 103.395 258.431 103.402L274.036 103.503C279.403 103.088 284.536 98.4116 282.976 92.6145L282.899 92.3147C281.51 87.3541 269.114 77.0769 265.213 73.2975C259.812 68.0636 255.166 60.8172 246.738 61.2434Z" fill="#F0F0F0"/>
<path d="M28.4981 31.5215L35.3235 31.4487C37.7827 21.3633 44.6253 12.2395 53.4851 6.84348C65.4214 -0.425384 78.623 0.173509 92.0589 0.16623L146.052 0.129171C153.613 0.115274 161.654 -0.549803 169.048 1.27866C187.066 5.73567 198.693 19.9227 198.774 38.388C198.785 40.8848 198.544 43.8522 199.243 46.265L199.277 116.101C199.277 120.681 199.581 125.51 199.07 130.049C197.44 144.545 188.525 158.715 175.19 165.119C174.584 165.41 172.265 166.171 171.965 166.571L167.65 168.061C167.042 168.269 166.181 168.441 165.683 168.85L166.984 169.138L141.681 168.683C141.698 171.2 141.694 173.881 141.193 176.549C136.141 203.402 101.435 215.771 81.5315 195.51C76.5497 190.438 71.0008 181.275 70.6792 173.835L70.3218 171.265L70.1894 170.438C69.9413 169.098 68.1909 169.779 67.142 169.739C59.7626 169.452 51.7956 166.692 45.7219 162.62C31.0624 152.793 28.1493 136.596 28.1639 120.116L28.1778 97.1808C28.1877 94.4503 28.148 91.5339 28.6761 88.8518L29.0142 86.6977C29.1075 86.0009 29.2631 85.6872 29.7554 85.1869L29.897 85.0479C28.3405 84.7971 26.6795 84.9791 25.0899 84.8024L24.8292 84.7713L18.1301 84.7177C16.7788 84.7038 15.26 84.7726 13.9493 84.4503L13.6837 84.3795C5.94162 82.3731 6.97391 71.3738 15.2177 70.039C19.5576 69.3667 24.1059 70.3302 28.3664 69.7022C27.9197 63.3512 29.3921 53.2744 30.7428 47.2246C31.4184 47.0558 31.9684 46.7375 32.0114 45.9837C31.1769 45.9705 30.2974 46.0023 29.4814 45.8137L29.0745 45.7124L8.42636 45.5907C7.05961 45.5761 5.70298 45.6363 4.44384 45.0169L4.17079 44.8793C-1.31917 42.2785 -1.5533 33.5306 4.44675 31.6048L4.68776 31.5334C6.54455 30.9676 9.5065 31.4586 11.4798 31.4679L28.4981 31.5215Z" fill="#FBFBFB"/>
<path d="M29.0745 45.6258L8.42636 45.5888C7.05961 45.5742 5.70298 45.6344 4.44384 45.015L4.17079 44.8774C-1.31917 42.2766 -1.5533 33.5287 4.44675 31.603L4.68776 31.5315C6.54455 30.9657 9.5065 31.4567 11.4798 31.466L28.4981 31.5196L51.9299 31.558C53.4652 31.5646 55.0793 31.5288 56.5736 31.9147L56.8396 31.9795C62.6142 33.4949 61.6169 44.4882 53.7961 45.4518C48.1486 46.1473 34.9576 45.9461 29.0745 45.6258Z" fill="#F0F0F0"/>
<path d="M15.2177 70.0364L123.983 69.7227C127.79 69.7234 133.768 68.7585 137.203 70.8272L137.491 70.9966C142.975 74.3293 142.592 82.4605 136.318 84.3571L135.99 84.4603C134.527 84.8832 132.889 84.7475 131.377 84.7396L104.327 84.6986L24.8292 84.7323L18.1302 84.7151C16.7788 84.7012 15.2601 84.77 13.9494 84.4477L13.6837 84.3769C5.94165 82.3705 6.97394 71.3712 15.2177 70.0364Z" fill="#F0F0F0"/>
<path d="M97.1005 134.974C117.584 129.391 139.359 144.205 141.363 165.049C141.469 166.152 141.434 167.426 141.682 168.496C141.699 171.198 141.695 173.88 141.193 176.547C136.142 203.401 101.436 215.77 81.5324 195.508C76.5506 190.437 71.0017 181.274 70.6801 173.834L70.3227 171.264C70.2711 155.296 81.2512 139.024 97.1005 134.974Z" fill="#F0F0F0"/>
</svg>
