<svg width="387" height="249" viewBox="0 0 387 249" fill="none" xmlns="http://www.w3.org/2000/svg">
<path d="M240.86 55.9249C247.709 45.6985 259.825 44.9345 270.948 44.9297L285.404 45.1625C305.781 47.7401 319.941 60.0321 333.323 74.2377L345.169 86.5321C354.673 96.2417 364.534 105.707 372.977 116.381C385.568 132.298 386.81 143.907 386.806 162.946C386.803 176.447 388.063 189.192 376.079 198.467C370.097 203.097 362.917 203.896 355.596 203.794C355.137 203.788 354.781 203.568 354.71 204.038C345.126 267.82 270.843 258.875 264.991 204.791L209.189 204.482L201.866 204.487L200.293 204.116C200.895 203.621 201.935 203.414 202.671 203.162L207.887 201.361C208.25 200.878 211.053 199.958 211.786 199.606C227.907 191.864 238.683 174.734 240.654 157.211C241.271 151.722 240.903 145.885 240.904 140.349L240.895 116.319L240.86 55.9249ZM298.277 74.0361C285.387 75.9441 287.065 85.9353 287.056 95.7881C287.044 108.529 286.135 119.876 301.413 124.558C304.555 125.52 309.095 124.993 312.412 125.001L331.278 125.122C337.766 124.621 343.971 118.968 342.085 111.96L341.991 111.598C340.313 105.601 325.327 93.1769 320.611 88.6081C314.082 82.2809 308.466 73.5209 298.277 74.0361Z" fill="#262626"/>
<path d="M34.4508 38.1058L42.702 38.0178C45.6748 25.8258 53.9468 14.7962 64.6572 8.27296C79.0868 -0.514239 95.046 0.209752 111.288 0.200952L176.56 0.156152C185.7 0.139352 195.421 -0.664648 204.36 1.54575C226.141 6.93375 240.196 24.0842 240.294 46.4066C240.308 49.425 240.016 53.0122 240.862 55.929L240.901 116.323L240.903 140.353C240.902 145.889 241.27 151.727 240.652 157.215C238.682 174.738 227.905 191.868 211.784 199.61C211.052 199.962 208.248 200.882 207.886 201.365L202.669 203.166C201.934 203.418 200.893 203.625 200.292 204.12L201.864 204.468L171.276 203.919C171.296 206.96 171.292 210.202 170.685 213.427C164.579 245.89 122.623 260.842 98.562 236.348C92.5396 230.218 85.8316 219.14 85.4428 210.147L85.0108 207.039L84.8508 206.039C84.5508 204.419 82.4348 205.243 81.1668 205.195C72.246 204.847 62.6148 201.511 55.2724 196.589C37.5508 184.709 34.0292 165.129 34.0468 145.206L34.0636 117.48C34.0756 114.179 34.0276 110.654 34.666 107.411L35.0748 104.807C35.1876 103.965 35.3756 103.586 35.9708 102.981L36.142 102.813C34.2604 102.51 32.2524 102.73 30.3308 102.516L30.0156 102.479L21.9172 102.414C20.2836 102.397 18.4476 102.48 16.8631 102.091L16.542 102.005C7.18272 99.5794 8.43064 86.2826 18.3964 84.669C23.6428 83.8562 29.1412 85.021 34.2916 84.2617C33.7516 76.5842 35.5316 64.4025 37.1644 57.089C37.9812 56.8849 38.646 56.5001 38.698 55.589C37.6892 55.5729 36.626 55.6114 35.6396 55.3834L35.1476 55.261L10.1865 55.1138C8.53424 55.0962 6.89424 55.1689 5.37208 54.4202L5.042 54.2538C-1.59472 51.1098 -1.87776 40.5346 5.3756 38.2066L5.66695 38.1202C7.91159 37.4362 11.4922 38.0298 13.8777 38.041L34.4508 38.1058Z" fill="#F0F0F0"/>
<path d="M35.1476 55.1563L10.1865 55.1115C8.53424 55.0939 6.89424 55.1667 5.37208 54.4179L5.042 54.2515C-1.59472 51.1075 -1.87776 40.5323 5.3756 38.2043L5.66695 38.1179C7.91159 37.4339 11.4922 38.0275 13.8777 38.0387L34.4508 38.1035L62.7772 38.1499C64.6332 38.1579 66.5844 38.1147 68.3908 38.5811L68.7124 38.6595C75.6932 40.4915 74.4876 53.7811 65.0332 54.9459C58.206 55.7867 42.2596 55.5435 35.1476 55.1563Z" fill="#262626"/>
<path d="M18.3964 84.6658L149.88 84.2866C154.484 84.2874 161.709 83.121 165.862 85.6218L166.21 85.8266C172.84 89.8554 172.377 99.685 164.792 101.978L164.396 102.103C162.628 102.614 160.648 102.45 158.819 102.44L126.119 102.391L30.0156 102.431L21.9172 102.411C20.2836 102.394 18.4476 102.477 16.8632 102.087L16.542 102.002C7.18276 99.5762 8.43068 86.2794 18.3964 84.6658Z" fill="#262626"/>
<path d="M117.383 163.168C142.145 156.419 168.469 174.327 170.891 199.525C171.019 200.859 170.977 202.399 171.277 203.692C171.298 206.959 171.293 210.2 170.686 213.425C164.58 245.888 122.624 260.84 98.5631 236.347C92.5407 230.216 85.8327 219.139 85.4439 210.145L85.0119 207.038C84.9495 187.735 98.2231 168.064 117.383 163.168Z" fill="#262626"/>
</svg>
